<?xml version="1.0" encoding="UTF-8"?>
<!DOCTYPE svg PUBLIC "-//W3C//DTD SVG 1.1//EN" "http://www.w3.org/Graphics/SVG/1.1/DTD/svg11.dtd">
<svg xmlns="http://www.w3.org/2000/svg" version="1.1" width="1012px" height="132px" style="shape-rendering:geometricPrecision; text-rendering:geometricPrecision; image-rendering:optimizeQuality; fill-rule:evenodd; clip-rule:evenodd" xmlns:xlink="http://www.w3.org/1999/xlink">
<g><path style="opacity:0.501" fill="#010101" d="M 319.5,39.5 C 315.445,47.9984 311.778,56.6651 308.5,65.5C 307.833,44.5 307.167,23.5 306.5,2.5C 290.5,2.5 274.5,2.5 258.5,2.5C 258.611,1.88258 258.944,1.38258 259.5,1C 278.5,0.333333 297.5,0.333333 316.5,1C 317,1.5 317.5,2 318,2.5C 318.169,15.0068 318.669,27.3401 319.5,39.5 Z"/></g>
<g><path style="opacity:0.511" fill="#010101" d="M 450.5,21.5 C 445.597,33.0772 441.597,45.0772 438.5,57.5C 437.833,39.1667 437.167,20.8333 436.5,2.5C 420.5,2.5 404.5,2.5 388.5,2.5C 388.611,1.88258 388.944,1.38258 389.5,1C 408.5,0.333333 427.5,0.333333 446.5,1C 447,1.5 447.5,2 448,2.5C 447.869,9.24552 448.702,15.5788 450.5,21.5 Z"/></g>
<g><path style="opacity:0.383" fill="#080808" d="M 754.5,64.5 C 754.5,80.1667 754.5,95.8333 754.5,111.5C 771.5,111.5 788.5,111.5 805.5,111.5C 805.83,94.3251 805.497,77.3251 804.5,60.5C 789.163,60.6666 773.83,60.4999 758.5,60C 773.711,56.1967 789.045,53.0301 804.5,50.5C 804.5,40.8333 804.5,31.1667 804.5,21.5C 788.167,21.5 771.833,21.5 755.5,21.5C 755.167,21.5 754.833,21.5 754.5,21.5C 756.757,19.4402 759.424,17.9402 762.5,17C 778.167,16.3333 793.833,16.3333 809.5,17C 812.55,18.7136 815.55,18.7136 818.5,17C 834.5,16.3333 850.5,16.3333 866.5,17C 869.146,17.8041 871.146,19.3041 872.5,21.5C 869.006,34.806 865.84,48.1393 863,61.5C 865.1,58.5332 867.934,56.6998 871.5,56C 878.036,54.9892 884.369,55.6559 890.5,58C 894.626,60.7054 895.96,64.2054 894.5,68.5C 894.714,66.8561 894.38,65.3561 893.5,64C 885.724,60.1584 878.724,61.1584 872.5,67C 873.68,69.5978 875.68,71.2645 878.5,72C 884.282,73.2488 889.615,72.4154 894.5,69.5C 894.489,71.0174 893.823,72.1841 892.5,73C 881.634,79.5955 871.467,78.7622 862,70.5C 861.5,54.1701 861.333,37.8367 861.5,21.5C 844.833,21.5 828.167,21.5 811.5,21.5C 811.5,57.1667 811.5,92.8333 811.5,128.5C 810.518,125.038 810.185,121.371 810.5,117.5C 734.173,117.65 657.84,117.483 581.5,117C 579.072,115.982 577.738,114.148 577.5,111.5C 594.167,111.5 610.833,111.5 627.5,111.5C 627.83,90.9931 627.497,70.6598 626.5,50.5C 625.076,41.817 620.742,34.9837 613.5,30C 594.629,19.2035 574.296,14.8701 552.5,17C 540.377,18.1143 528.71,20.9476 517.5,25.5C 519.578,22.9493 522.244,21.116 525.5,20C 555,9.68606 584.333,10.0194 613.5,21C 620.847,24.5154 627.181,29.3487 632.5,35.5C 632.5,60.8333 632.5,86.1667 632.5,111.5C 671.833,111.5 711.167,111.5 750.5,111.5C 750.829,96.9903 750.496,82.6569 749.5,68.5C 730.5,68.5 711.5,68.5 692.5,68.5C 692.5,46.5 692.5,24.5 692.5,2.5C 673.167,2.5 653.833,2.5 634.5,2.5C 634.611,1.88258 634.944,1.38258 635.5,1C 657.833,0.333333 680.167,0.333333 702.5,1C 703.126,1.75044 703.626,2.58377 704,3.5C 704.333,23.5 704.667,43.5 705,63.5C 721.423,64.4916 737.923,64.8249 754.5,64.5 Z"/></g>
<g><path style="opacity:1" fill="#fefefe" d="M 4.5,2.5 C 4.83333,2.5 5.16667,2.5 5.5,2.5C 25.1667,2.5 44.8333,2.5 64.5,2.5C 64.5,24.5 64.5,46.5 64.5,68.5C 83.5,68.5 102.5,68.5 121.5,68.5C 121.5,82.5 121.5,96.5 121.5,110.5C 82.5,110.5 43.5,110.5 4.5,110.5C 4.5,74.5 4.5,38.5 4.5,2.5 Z"/></g>
<g><path style="opacity:1" fill="#fefffe" d="M 257.5,2.5 C 257.833,2.5 258.167,2.5 258.5,2.5C 274.5,2.5 290.5,2.5 306.5,2.5C 306.5,38.5 306.5,74.5 306.5,110.5C 290.167,110.5 273.833,110.5 257.5,110.5C 257.5,74.5 257.5,38.5 257.5,2.5 Z"/></g>
<g><path style="opacity:1" fill="#fefefe" d="M 633.5,2.5 C 633.833,2.5 634.167,2.5 634.5,2.5C 653.833,2.5 673.167,2.5 692.5,2.5C 692.5,24.5 692.5,46.5 692.5,68.5C 711.5,68.5 730.5,68.5 749.5,68.5C 749.5,82.5 749.5,96.5 749.5,110.5C 710.833,110.5 672.167,110.5 633.5,110.5C 633.5,74.5 633.5,38.5 633.5,2.5 Z"/></g>
<g><path style="opacity:1" fill="#d2d2d2" d="M 306.5,2.5 C 307.167,23.5 307.833,44.5 308.5,65.5C 308.5,66.1667 308.5,66.8333 308.5,67.5C 307.504,81.9905 307.171,96.6572 307.5,111.5C 291.167,111.5 274.833,111.5 258.5,111.5C 258.167,111.5 257.833,111.5 257.5,111.5C 257.5,111.167 257.5,110.833 257.5,110.5C 273.833,110.5 290.167,110.5 306.5,110.5C 306.5,74.5 306.5,38.5 306.5,2.5 Z"/></g>
<g><path style="opacity:0.305" fill="#060606" d="M 124.5,64.5 C 125.194,86.7322 135.86,101.899 156.5,110C 184.77,119.377 211.77,116.71 237.5,102C 243.895,97.1095 248.562,90.9428 251.5,83.5C 237.696,78.2319 223.696,73.5652 209.5,69.5C 223.833,68.8333 238.167,68.1667 252.5,67.5C 251.631,40.1221 237.631,23.9554 210.5,19C 189.094,14.4263 168.428,16.593 148.5,25.5C 159.599,18.0774 171.933,13.9107 185.5,13C 204.868,10.8607 223.202,14.194 240.5,23C 246.623,26.7892 251.79,31.6225 256,37.5C 256.169,25.6595 256.669,13.9928 257.5,2.5C 257.5,38.5 257.5,74.5 257.5,110.5C 257.5,110.833 257.5,111.167 257.5,111.5C 256.675,107.353 256.175,103.019 256,98.5C 243.744,111.707 228.577,119.207 210.5,121C 188.589,124.015 167.923,120.349 148.5,110C 143.032,105.533 137.865,100.7 133,95.5C 132.667,101.5 132.333,107.5 132,113.5C 130.786,115.049 129.286,116.215 127.5,117C 88.1667,117.667 48.8333,117.667 9.5,117C 6.78539,116.125 5.45206,114.292 5.5,111.5C 44.3369,111.832 83.0036,111.499 121.5,110.5C 121.5,96.5 121.5,82.5 121.5,68.5C 102.5,68.5 83.5,68.5 64.5,68.5C 64.5,46.5 64.5,24.5 64.5,2.5C 44.8333,2.5 25.1667,2.5 5.5,2.5C 5.61071,1.88258 5.94404,1.38258 6.5,1C 29.174,0.166883 51.8407,0.333549 74.5,1.5C 75.322,22.1235 75.822,42.7901 76,63.5C 92.0891,64.4914 108.256,64.8248 124.5,64.5 Z M 249.5,75.5 C 251.607,74.5318 253.941,74.1984 256.5,74.5C 256.719,75.675 256.386,76.675 255.5,77.5C 253.55,76.6279 251.55,75.9612 249.5,75.5 Z"/></g>
<g><path style="opacity:0.374" fill="#060606" d="M 515.5,60.5 C 515.833,60.5 516.167,60.5 516.5,60.5C 534.684,50.5982 553.017,50.0982 571.5,59C 574.975,62.0965 576.475,65.9298 576,70.5C 570.004,64.717 562.838,61.217 554.5,60C 546.5,59.3333 538.5,59.3333 530.5,60C 525.91,61.297 521.577,63.1303 517.5,65.5C 517.284,61.3757 516.284,60.8757 514.5,64C 514.684,65.3756 515.351,66.2089 516.5,66.5C 503.512,79.5942 503.179,93.0942 515.5,107C 526.129,114.125 537.796,116.459 550.5,114C 555.146,113.674 559.479,112.34 563.5,110C 567.459,101.952 571.126,93.7851 574.5,85.5C 575.493,93.9839 575.826,102.651 575.5,111.5C 574.723,114.112 573.056,115.945 570.5,117C 556.612,122.505 542.612,122.838 528.5,118C 523.761,115.757 519.428,112.923 515.5,109.5C 514.562,112.891 512.562,115.391 509.5,117C 492.5,117.667 475.5,117.667 458.5,117C 455.944,115.945 454.277,114.112 453.5,111.5C 470.167,111.5 486.833,111.5 503.5,111.5C 503.831,87.994 503.498,64.6607 502.5,41.5C 501.982,31.47 496.982,24.6367 487.5,21C 475.104,17.567 462.77,17.7336 450.5,21.5C 453.06,18.4625 456.393,16.6292 460.5,16C 475.612,11.5628 489.945,13.2295 503.5,21C 508.02,24.5362 511.186,29.0362 513,34.5C 514.007,43.2944 514.84,51.961 515.5,60.5 Z M 517.5,65.5 C 516.833,65.5 516.5,65.8333 516.5,66.5C 515.351,66.2089 514.684,65.3756 514.5,64C 516.284,60.8757 517.284,61.3757 517.5,65.5 Z"/></g>
<g><path style="opacity:0.396" fill="#040404" d="M 950.5,39.5 C 950.5,57.5 950.5,75.5 950.5,93.5C 929.647,118.219 903.647,125.553 872.5,115.5C 872.733,120.895 872.4,126.228 871.5,131.5C 851.833,131.5 832.167,131.5 812.5,131.5C 812.443,130.391 812.11,129.391 811.5,128.5C 828.167,128.5 844.833,128.5 861.5,128.5C 861.334,120.826 861.5,113.159 862,105.5C 882.535,116.195 903.035,116.028 923.5,105C 942.902,92.1452 949.735,74.3118 944,51.5C 937.32,34.8243 925.154,24.6576 907.5,21C 896.512,19.2502 885.512,19.0835 874.5,20.5C 875.343,18.8267 876.676,17.66 878.5,17C 907.266,10.0132 931.266,17.5132 950.5,39.5 Z"/></g>
<g><path style="opacity:0.385" fill="#030303" d="M 386.5,16.5 C 386.5,24.5 386.5,32.5 386.5,40.5C 380.562,48.1912 375.229,56.3579 370.5,65C 375.224,74.296 380.557,83.1293 386.5,91.5C 386.5,98.1667 386.5,104.833 386.5,111.5C 403.5,111.5 420.5,111.5 437.5,111.5C 437.181,93.7566 437.514,76.0899 438.5,58.5C 441.445,57.5325 444.445,57.3658 447.5,58C 450.079,59.0757 451.746,60.909 452.5,63.5C 452.5,63.8333 452.5,64.1667 452.5,64.5C 451.178,64.33 450.011,64.6634 449,65.5C 448.667,81.1667 448.333,96.8333 448,112.5C 447.167,114.667 445.667,116.167 443.5,117C 406.5,117.667 369.5,117.667 332.5,117C 329.921,115.924 328.254,114.091 327.5,111.5C 346.845,111.833 366.178,111.5 385.5,110.5C 385.376,109.893 385.043,109.56 384.5,109.5C 375.637,94.2784 366.637,79.1118 357.5,64C 366.251,49.8301 375.251,35.8301 384.5,22C 365.503,21.5001 346.503,21.3334 327.5,21.5C 329.41,19.4383 331.743,17.9383 334.5,17C 351.83,16.5001 369.163,16.3334 386.5,16.5 Z"/></g>
<g><path style="opacity:0.346" fill="#050505" d="M 1011.5,20.5 C 1011.5,31.1667 1011.5,41.8333 1011.5,52.5C 1010.55,54.118 1009.22,55.4513 1007.5,56.5C 1008.85,57.5244 1010.19,58.5244 1011.5,59.5C 1011.5,77.8333 1011.5,96.1667 1011.5,114.5C 1010.32,115.504 1008.98,116.338 1007.5,117C 990.5,117.667 973.5,117.667 956.5,117C 953.921,115.924 952.254,114.091 951.5,111.5C 967.833,111.5 984.167,111.5 1000.5,111.5C 1000.5,94.5 1000.5,77.5 1000.5,60.5C 984.83,60.6666 969.163,60.4999 953.5,60C 969.037,56.1261 984.703,52.9594 1000.5,50.5C 1000.5,40.8333 1000.5,31.1667 1000.5,21.5C 983.833,21.5 967.167,21.5 950.5,21.5C 952.41,19.4383 954.743,17.9383 957.5,17C 973.5,16.3333 989.5,16.3333 1005.5,17C 1007.89,17.5637 1009.89,18.7304 1011.5,20.5 Z"/></g>
<g><path style="opacity:1" fill="#fdfdfd" d="M 252.5,67.5 C 225.995,67.1688 199.661,67.5022 173.5,68.5C 176.176,75.8488 181.51,79.1821 189.5,78.5C 194.49,78.5859 199.156,77.4193 203.5,75C 205.16,73.5123 206.16,71.679 206.5,69.5C 207.5,68.1667 208.5,68.1667 209.5,69.5C 223.696,73.5652 237.696,78.2319 251.5,83.5C 248.562,90.9428 243.895,97.1095 237.5,102C 211.77,116.71 184.77,119.377 156.5,110C 135.86,101.899 125.194,86.7322 124.5,64.5C 124.53,56.0246 126.864,48.3579 131.5,41.5C 132.906,41.0269 133.573,40.0269 133.5,38.5C 135.167,36.1667 137.167,34.1667 139.5,32.5C 142.089,31.5806 144.089,29.914 145.5,27.5C 147.027,27.573 148.027,26.9063 148.5,25.5C 168.428,16.593 189.094,14.4263 210.5,19C 237.631,23.9554 251.631,40.1221 252.5,67.5 Z"/></g>
<g><path style="opacity:1" fill="#fdfdfd" d="M 626.5,50.5 C 626.5,70.5 626.5,90.5 626.5,110.5C 609.833,110.5 593.167,110.5 576.5,110.5C 576.828,99.6536 576.494,88.9869 575.5,78.5C 572.856,74.9006 569.189,73.2339 564.5,73.5C 556.57,73.4126 553.57,77.0792 555.5,84.5C 561.54,89.4547 567.874,89.788 574.5,85.5C 571.126,93.7851 567.459,101.952 563.5,110C 559.479,112.34 555.146,113.674 550.5,114C 537.796,116.459 526.129,114.125 515.5,107C 503.179,93.0942 503.512,79.5942 516.5,66.5C 516.5,65.8333 516.833,65.5 517.5,65.5C 521.577,63.1303 525.91,61.297 530.5,60C 538.5,59.3333 546.5,59.3333 554.5,60C 562.838,61.217 570.004,64.717 576,70.5C 576.475,65.9298 574.975,62.0965 571.5,59C 553.017,50.0982 534.684,50.5982 516.5,60.5C 516.189,48.7527 516.522,37.0861 517.5,25.5C 528.71,20.9476 540.377,18.1143 552.5,17C 574.296,14.8701 594.629,19.2035 613.5,30C 620.742,34.9837 625.076,41.817 626.5,50.5 Z M 575.5,80.5 C 575.5,81.1667 575.5,81.8333 575.5,82.5C 572.384,83.9817 569.384,83.815 566.5,82C 569.278,80.6081 572.278,80.1081 575.5,80.5 Z"/></g>
<g><path style="opacity:1" fill="#fefefe" d="M 502.5,41.5 C 502.5,64.5 502.5,87.5 502.5,110.5C 486.167,110.5 469.833,110.5 453.5,110.5C 453.83,94.6578 453.496,78.9911 452.5,63.5C 451.746,60.909 450.079,59.0757 447.5,58C 444.445,57.3658 441.445,57.5325 438.5,58.5C 438.5,58.1667 438.5,57.8333 438.5,57.5C 441.597,45.0772 445.597,33.0772 450.5,21.5C 462.77,17.7336 475.104,17.567 487.5,21C 496.982,24.6367 501.982,31.47 502.5,41.5 Z"/></g>
<g><path style="opacity:1" fill="#fdfdfd" d="M 811.5,128.5 C 811.5,92.8333 811.5,57.1667 811.5,21.5C 828.167,21.5 844.833,21.5 861.5,21.5C 861.333,37.8367 861.5,54.1701 862,70.5C 871.467,78.7622 881.634,79.5955 892.5,73C 893.823,72.1841 894.489,71.0174 894.5,69.5C 894.5,69.1667 894.5,68.8333 894.5,68.5C 895.96,64.2054 894.626,60.7054 890.5,58C 884.369,55.6559 878.036,54.9892 871.5,56C 867.934,56.6998 865.1,58.5332 863,61.5C 865.84,48.1393 869.006,34.806 872.5,21.5C 872.842,20.6618 873.508,20.3284 874.5,20.5C 885.512,19.0835 896.512,19.2502 907.5,21C 925.154,24.6576 937.32,34.8243 944,51.5C 949.735,74.3118 942.902,92.1452 923.5,105C 903.035,116.028 882.535,116.195 862,105.5C 861.5,113.159 861.334,120.826 861.5,128.5C 844.833,128.5 828.167,128.5 811.5,128.5 Z M 894.5,68.5 C 894.5,68.8333 894.5,69.1667 894.5,69.5C 889.615,72.4154 884.282,73.2488 878.5,72C 875.68,71.2645 873.68,69.5978 872.5,67C 878.724,61.1584 885.724,60.1584 893.5,64C 894.38,65.3561 894.714,66.8561 894.5,68.5 Z"/></g>
<g><path style="opacity:1" fill="#fdfdfd" d="M 327.5,21.5 C 346.503,21.3334 365.503,21.5001 384.5,22C 375.251,35.8301 366.251,49.8301 357.5,64C 366.637,79.1118 375.637,94.2784 384.5,109.5C 365.341,110.497 346.007,110.83 326.5,110.5C 324.306,105.92 322.306,101.254 320.5,96.5C 316.5,86.8333 312.5,77.1667 308.5,67.5C 308.5,66.8333 308.5,66.1667 308.5,65.5C 311.778,56.6651 315.445,47.9984 319.5,39.5C 321.62,33.2598 324.287,27.2598 327.5,21.5 Z"/></g>
<g><path style="opacity:0.318" fill="#272727" d="M 148.5,25.5 C 148.027,26.9063 147.027,27.573 145.5,27.5C 145.973,26.0937 146.973,25.427 148.5,25.5 Z"/></g>
<g><path style="opacity:0.631" fill="#9c9c9c" d="M 517.5,25.5 C 516.522,37.0861 516.189,48.7527 516.5,60.5C 516.167,60.5 515.833,60.5 515.5,60.5C 514.855,48.4521 515.522,36.7854 517.5,25.5 Z"/></g>
<g><path style="opacity:0.898" fill="#848484" d="M 145.5,27.5 C 144.089,29.914 142.089,31.5806 139.5,32.5C 140.911,30.086 142.911,28.4194 145.5,27.5 Z"/></g>
<g><path style="opacity:0.376" fill="#535353" d="M 133.5,38.5 C 133.573,40.0269 132.906,41.0269 131.5,41.5C 131.427,39.9731 132.094,38.9731 133.5,38.5 Z"/></g>
<g><path style="opacity:0.333" fill="#070707" d="M 183.5,53.5 C 188.93,53.161 194.264,53.661 199.5,55C 203.877,56.2055 206.21,59.0388 206.5,63.5C 195.5,63.5 184.5,63.5 173.5,63.5C 173.491,61.6916 173.991,60.0249 175,58.5C 177.682,56.415 180.516,54.7483 183.5,53.5 Z"/></g>
<g><path style="opacity:0.999" fill="#a2a2a2" d="M 387.5,2.5 C 387.5,38.5 387.5,74.5 387.5,110.5C 403.833,110.5 420.167,110.5 436.5,110.5C 436.5,74.5 436.5,38.5 436.5,2.5C 437.167,20.8333 437.833,39.1667 438.5,57.5C 438.5,57.8333 438.5,58.1667 438.5,58.5C 437.514,76.0899 437.181,93.7566 437.5,111.5C 420.5,111.5 403.5,111.5 386.5,111.5C 386.5,104.833 386.5,98.1667 386.5,91.5C 386.5,74.5 386.5,57.5 386.5,40.5C 386.5,32.5 386.5,24.5 386.5,16.5C 386.181,11.6367 386.514,6.97005 387.5,2.5 Z"/></g>
<g><path style="opacity:1" fill="#fefffe" d="M 387.5,2.5 C 387.833,2.5 388.167,2.5 388.5,2.5C 404.5,2.5 420.5,2.5 436.5,2.5C 436.5,38.5 436.5,74.5 436.5,110.5C 420.167,110.5 403.833,110.5 387.5,110.5C 387.5,74.5 387.5,38.5 387.5,2.5 Z"/></g>
<g><path style="opacity:1" fill="#fefefe" d="M 755.5,21.5 C 771.833,21.5 788.167,21.5 804.5,21.5C 804.5,31.1667 804.5,40.8333 804.5,50.5C 789.045,53.0301 773.711,56.1967 758.5,60C 773.83,60.4999 789.163,60.6666 804.5,60.5C 804.5,77.1667 804.5,93.8333 804.5,110.5C 788.167,110.5 771.833,110.5 755.5,110.5C 755.5,80.8333 755.5,51.1667 755.5,21.5 Z"/></g>
<g><path style="opacity:1" fill="#fdfdfd" d="M 950.5,21.5 C 967.167,21.5 983.833,21.5 1000.5,21.5C 1000.5,31.1667 1000.5,40.8333 1000.5,50.5C 984.703,52.9594 969.037,56.1261 953.5,60C 969.163,60.4999 984.83,60.6666 1000.5,60.5C 1000.5,77.5 1000.5,94.5 1000.5,111.5C 984.167,111.5 967.833,111.5 951.5,111.5C 950.51,105.69 950.177,99.69 950.5,93.5C 950.5,75.5 950.5,57.5 950.5,39.5C 950.5,33.5 950.5,27.5 950.5,21.5 Z"/></g>
<g><path style="opacity:0.898" fill="#6b6b6b" d="M 173.5,68.5 C 199.661,67.5022 225.995,67.1688 252.5,67.5C 238.167,68.1667 223.833,68.8333 209.5,69.5C 208.5,68.1667 207.5,68.1667 206.5,69.5C 195.679,68.5054 184.679,68.1721 173.5,68.5 Z"/></g>
<g><path style="opacity:0.319" fill="#040404" d="M 173.5,68.5 C 184.679,68.1721 195.679,68.5054 206.5,69.5C 206.16,71.679 205.16,73.5123 203.5,75C 199.156,77.4193 194.49,78.5859 189.5,78.5C 181.51,79.1821 176.176,75.8488 173.5,68.5 Z"/></g>
<g><path style="opacity:0.402" fill="#010101" d="M 308.5,67.5 C 312.5,77.1667 316.5,86.8333 320.5,96.5C 319.883,96.3893 319.383,96.056 319,95.5C 318.667,101.167 318.333,106.833 318,112.5C 317.167,114.667 315.667,116.167 313.5,117C 296.5,117.667 279.5,117.667 262.5,117C 259.785,116.125 258.452,114.292 258.5,111.5C 274.833,111.5 291.167,111.5 307.5,111.5C 307.171,96.6572 307.504,81.9905 308.5,67.5 Z"/></g>
<g><path style="opacity:0.414" fill="#0a0a0a" d="M 575.5,78.5 C 575.5,79.1667 575.5,79.8333 575.5,80.5C 572.278,80.1081 569.278,80.6081 566.5,82C 569.384,83.815 572.384,83.9817 575.5,82.5C 575.443,83.609 575.11,84.609 574.5,85.5C 567.874,89.788 561.54,89.4547 555.5,84.5C 553.57,77.0792 556.57,73.4126 564.5,73.5C 569.189,73.2339 572.856,74.9006 575.5,78.5 Z"/></g>
<g><path style="opacity:0.861" fill="#303030" d="M 575.5,78.5 C 576.494,88.9869 576.828,99.6536 576.5,110.5C 576.5,110.833 576.5,111.167 576.5,111.5C 576.167,111.5 575.833,111.5 575.5,111.5C 575.826,102.651 575.493,93.9839 574.5,85.5C 575.11,84.609 575.443,83.609 575.5,82.5C 575.5,81.8333 575.5,81.1667 575.5,80.5C 575.5,79.8333 575.5,79.1667 575.5,78.5 Z"/></g>
<g><path style="opacity:0.954" fill="#909090" d="M 4.5,2.5 C 4.5,38.5 4.5,74.5 4.5,110.5C 43.5,110.5 82.5,110.5 121.5,110.5C 83.0036,111.499 44.3369,111.832 5.5,111.5C 4.16707,93.6792 3.50041,75.5125 3.5,57C 3.50005,38.6636 3.83338,20.4969 4.5,2.5 Z"/></g>
<g><path style="opacity:0.953" fill="#afafaf" d="M 384.5,109.5 C 385.043,109.56 385.376,109.893 385.5,110.5C 366.178,111.5 346.845,111.833 327.5,111.5C 326.833,111.5 326.5,111.167 326.5,110.5C 346.007,110.83 365.341,110.497 384.5,109.5 Z"/></g>
<g><path style="opacity:0.952" fill="#969696" d="M 502.5,41.5 C 503.498,64.6607 503.831,87.994 503.5,111.5C 486.833,111.5 470.167,111.5 453.5,111.5C 452.504,96.0089 452.17,80.3422 452.5,64.5C 452.5,64.1667 452.5,63.8333 452.5,63.5C 453.496,78.9911 453.83,94.6578 453.5,110.5C 469.833,110.5 486.167,110.5 502.5,110.5C 502.5,87.5 502.5,64.5 502.5,41.5 Z"/></g>
<g><path style="opacity:0.95" fill="#8f8f8f" d="M 626.5,50.5 C 627.497,70.6598 627.83,90.9931 627.5,111.5C 610.833,111.5 594.167,111.5 577.5,111.5C 577.167,111.5 576.833,111.5 576.5,111.5C 576.5,111.167 576.5,110.833 576.5,110.5C 593.167,110.5 609.833,110.5 626.5,110.5C 626.5,90.5 626.5,70.5 626.5,50.5 Z"/></g>
<g><path style="opacity:0.954" fill="#a1a1a1" d="M 633.5,2.5 C 633.5,38.5 633.5,74.5 633.5,110.5C 672.167,110.5 710.833,110.5 749.5,110.5C 749.5,96.5 749.5,82.5 749.5,68.5C 750.496,82.6569 750.829,96.9903 750.5,111.5C 711.167,111.5 671.833,111.5 632.5,111.5C 632.5,86.1667 632.5,60.8333 632.5,35.5C 632.172,24.3206 632.505,13.3206 633.5,2.5 Z"/></g>
<g><path style="opacity:0.949" fill="#949494" d="M 754.5,21.5 C 754.833,21.5 755.167,21.5 755.5,21.5C 755.5,51.1667 755.5,80.8333 755.5,110.5C 771.833,110.5 788.167,110.5 804.5,110.5C 804.5,93.8333 804.5,77.1667 804.5,60.5C 805.497,77.3251 805.83,94.3251 805.5,111.5C 788.5,111.5 771.5,111.5 754.5,111.5C 754.5,95.8333 754.5,80.1667 754.5,64.5C 754.5,50.1667 754.5,35.8333 754.5,21.5 Z"/></g>
</svg>
