<svg xmlns="http://www.w3.org/2000/svg" version="1.1" xmlns:xlink="http://www.w3.org/1999/xlink" xmlns:svgjs="http://svgjs.dev/svgjs" width="1500" height="189" viewBox="0 0 1500 189"><g transform="matrix(1,0,0,1,-0.9090909090909918,0.3590338389731329)"><svg viewBox="0 0 396 50" data-background-color="#ffffff" preserveAspectRatio="xMidYMid meet" height="189" width="1500" xmlns="http://www.w3.org/2000/svg" xmlns:xlink="http://www.w3.org/1999/xlink"><g id="tight-bounds" transform="matrix(1,0,0,1,0.2400000000000091,-0.09498249708283879)"><svg viewBox="0 0 395.52 50.18996499416569" height="50.18996499416569" width="395.52"><g><svg viewBox="0 0 395.52 50.18996499416569" height="50.18996499416569" width="395.52"><g><svg viewBox="0 0 395.52 50.18996499416569" height="50.18996499416569" width="395.52"><g id="textblocktransform"><svg viewBox="0 0 395.52 50.18996499416569" height="50.18996499416569" width="395.52" id="textblock"><g><svg viewBox="0 0 395.52 50.18996499416569" height="50.18996499416569" width="395.52"><g transform="matrix(1,0,0,1,0,0)"><svg width="395.52" viewBox="1 -37.5 342.78 43.5" height="50.18996499416569" data-palette-color="#000000"><path d="M21.75-14.8L21.75-14.8Q21.75-14.75 21.78-14.73 21.8-14.7 21.85-14.7L21.85-14.7 41.35-14.7 41.35 0 1 0Q1-3.1 1-6.2 1-9.3 1-12.43 1-15.55 1-18.65 1-21.75 1-24.85L1-24.85Q1-28 1-31.18 1-34.35 1-37.5L1-37.5 21.75-37.5Q21.75-34.65 21.75-31.83 21.75-29 21.75-26.15 21.75-23.3 21.75-20.48 21.75-17.65 21.75-14.8ZM65.1-11.3L65.1-11.3Q67.75-11.3 69.2-12.25 70.65-13.2 70.7-14.85L70.7-14.85 86.15-9.8Q85.25-6.65 82.32-4.08 79.4-1.5 74.95 0 70.5 1.5 65 1.5L65 1.5Q60.3 1.5 56.22 0.45 52.15-0.6 49.07-2.73 46-4.85 44.25-8.05 42.5-11.25 42.5-15.5L42.5-15.5Q42.5-19.75 44.25-22.95 46-26.15 49.07-28.28 52.15-30.4 56.25-31.45 60.35-32.5 65-32.5L65-32.5Q69.75-32.5 73.72-31.45 77.7-30.4 80.57-28.23 83.45-26.05 85.02-22.73 86.6-19.4 86.6-14.85L86.6-14.85 59.35-14.85Q59.35-14.85 59.32-14.85 59.3-14.85 59.3-14.85 59.3-14.85 59.3-14.8L59.3-14.8Q59.3-14.05 59.7-13.4 60.1-12.75 60.82-12.28 61.55-11.8 62.62-11.55 63.7-11.3 65.1-11.3ZM65-19.85L65-19.85Q62.55-19.85 60.95-18.98 59.35-18.1 59.35-16.5L59.35-16.5Q59.35-16.45 59.35-16.43 59.35-16.4 59.35-16.4 59.35-16.4 59.37-16.4 59.4-16.4 59.4-16.4L59.4-16.4 70.55-16.4Q70.6-16.4 70.6-16.43 70.6-16.45 70.6-16.5L70.6-16.5Q70.6-17.3 70.17-17.93 69.75-18.55 69-18.98 68.25-19.4 67.22-19.63 66.2-19.85 65-19.85ZM105.3 0L88 0Q88-6.1 88-12.18 88-18.25 88-24.3L88-24.3Q88-27.6 88-30.9 88-34.2 88-37.5L88-37.5 105.3-37.5Q105.3-34.75 105.3-32.02 105.3-29.3 105.3-26.6 105.3-23.9 105.3-21.18 105.3-18.45 105.3-15.7L105.3-15.7Q105.3-15.7 105.3-15.68 105.3-15.65 105.3-15.63 105.3-15.6 105.3-15.55L105.3-15.55Q105.3-15.25 105.3-14.4 105.3-13.55 105.3-12.3L105.3-12.3Q105.3-10.55 105.3-8.33 105.3-6.1 105.3-3.9 105.3-1.7 105.3 0L105.3 0ZM131.94-31L122.65-16.4Q122.59-16.35 122.59-16.32 122.59-16.3 122.65-16.25L122.65-16.25 132.25 0 112.09 0Q111-2.6 109.87-5.15 108.75-7.7 107.62-10.28 106.5-12.85 105.34-15.4L105.34-15.4Q105.34-15.4 105.34-15.43 105.34-15.45 105.32-15.48 105.3-15.5 105.3-15.5L105.3-15.5Q105.3-15.5 105.32-15.53 105.34-15.55 105.34-15.58 105.34-15.6 105.34-15.6L105.34-15.6 112.34-31 131.94-31ZM149.99 0L132.69 0Q132.69-4.65 132.69-9.25 132.69-13.85 132.69-18.48 132.69-23.1 132.69-27.7L132.69-27.7Q132.69-30.2 132.69-32.63 132.69-35.05 132.69-37.5L132.69-37.5 149.99-37.5Q149.99-35.95 149.99-33.88 149.99-31.8 149.99-29.55 149.99-27.3 149.99-25.2L149.99-25.2Q149.99-22.4 149.99-20.4 149.99-18.4 149.99-18.15L149.99-18.15Q149.99-17.9 149.99-17.03 149.99-16.15 149.99-14.9L149.99-14.9Q149.99-13.25 149.99-11.2 149.99-9.15 149.99-7.03 149.99-4.9 149.99-3.05 149.99-1.2 149.99 0L149.99 0ZM172.59 0L155.29 0Q155.29-1.95 155.29-3.9 155.29-5.85 155.29-7.78 155.29-9.7 155.29-11.65 155.29-13.6 155.29-15.55L155.29-15.55Q155.29-17 154.57-17.65 153.84-18.3 152.84-18.38 151.84-18.45 151.02-18.2 150.19-17.95 149.99-17.65L149.99-17.65 153.99-30.5Q155.79-31.3 157.84-31.7 159.89-32.1 161.89-32.1L161.89-32.1Q164.69-32.1 167.12-31.2 169.54-30.3 171.07-28.35 172.59-26.4 172.59-23.15L172.59-23.15Q172.59-19.3 172.59-15.43 172.59-11.55 172.59-7.7 172.59-3.85 172.59 0L172.59 0ZM176.99-29.2L176.99-29.2 176.99-17.25Q179.24-18.7 182.24-19.45 185.24-20.2 188.19-20.2L188.19-20.2Q190.09-20.2 191.81-19.85 193.54-19.5 194.87-18.78 196.19-18.05 196.97-16.93 197.74-15.8 197.74-14.25L197.74-14.25Q197.74-14.2 197.74-14.13 197.74-14.05 197.74-13.98 197.74-13.9 197.74-13.8L197.74-13.8Q196.99-14.8 195.81-15.6 194.64-16.4 193.16-16.95 191.69-17.5 190.04-17.78 188.39-18.05 186.64-18.05L186.64-18.05Q183.94-18.05 181.84-17.53 179.74-17 178.22-16.05 176.69-15.1 175.69-13.85 174.69-12.6 174.19-11.2 173.69-9.8 173.69-8.35L173.69-8.35Q173.69-5.95 174.69-4.15 175.69-2.35 177.41-1.15 179.14 0.05 181.31 0.68 183.49 1.3 185.84 1.3L185.84 1.3Q187.79 1.3 189.76 0.93 191.74 0.55 193.54-0.35L193.54-0.35Q194.59-2.8 195.66-5.25 196.74-7.7 197.79-10.15L197.79-10.15Q197.19-8.7 196.04-8.35 194.89-8 193.99-8L193.99-8Q192.14-8 191.14-8.78 190.14-9.55 190.14-10.5L190.14-10.5Q190.14-11.45 191.11-12.2 192.09-12.95 193.99-12.95L193.99-12.95Q194.84-12.95 195.69-12.73 196.54-12.5 197.14-11.95 197.74-11.4 197.74-10.5L197.74-10.5Q197.74-7.9 197.74-5.28 197.74-2.65 197.74 0L197.74 0Q199.49 0 201.24 0 202.99 0 204.74 0 206.49 0 208.24 0 209.99 0 211.74 0 213.49 0 215.24 0L215.24 0Q215.24-4.85 215.24-9.7 215.24-14.55 215.24-19.4L215.24-19.4Q215.24-22.7 213.44-25.15 211.64-27.6 208.56-29.25 205.49-30.9 201.59-31.7 197.69-32.5 193.49-32.5L193.49-32.5Q189.19-32.5 184.91-31.68 180.64-30.85 176.99-29.2ZM237.94-14.8L237.94-14.8Q237.94-14.75 237.96-14.73 237.99-14.7 238.04-14.7L238.04-14.7 257.54-14.7 257.54 0 217.19 0Q217.19-3.1 217.19-6.2 217.19-9.3 217.19-12.43 217.19-15.55 217.19-18.65 217.19-21.75 217.19-24.85L217.19-24.85Q217.19-28 217.19-31.18 217.19-34.35 217.19-37.5L217.19-37.5 237.94-37.5Q237.94-34.65 237.94-31.83 237.94-29 237.94-26.15 237.94-23.3 237.94-20.48 237.94-17.65 237.94-14.8ZM276.49 0L259.19 0Q259.19-2.3 259.19-4.58 259.19-6.85 259.19-9.13 259.19-11.4 259.19-13.65L259.19-13.65Q259.19-14.6 259.19-15.55 259.19-16.5 259.19-17.45L259.19-17.45Q262.08-17.45 264.96-17.45 267.83-17.45 270.74-17.45 273.63-17.45 276.49-17.45L276.49-17.45Q276.49-14.55 276.49-11.65 276.49-8.75 276.49-5.83 276.49-2.9 276.49 0L276.49 0ZM259.19-17.45L259.19-17.45Q259.19-20.85 259.19-24.25 259.19-27.65 259.19-31L259.19-31 276.49-31Q276.49-29.35 276.49-27.7 276.49-26.05 276.49-24.4 276.49-22.75 276.49-21.1L276.49-21.1Q276.49-21.1 276.46-21.08 276.44-21.05 276.44-21.05L276.44-21.05Q272.13-20.15 267.81-19.25 263.49-18.35 259.19-17.45ZM324.98-15.55L324.98-15.55Q324.98-11.8 323.43-8.8 321.88-5.8 319.26-3.65 316.63-1.5 313.33-0.38 310.03 0.75 306.48 0.75L306.48 0.75Q304.68 0.75 302.76 0.43 300.83 0.1 299.06-0.53 297.28-1.15 295.88-2.05L295.88-2.05Q295.88-2.05 295.86-2.05 295.83-2.05 295.81-2.05 295.78-2.05 295.78-2.02 295.78-2 295.78-2L295.78-2 295.78 6 278.48 6Q278.48 2.9 278.48-0.18 278.48-3.25 278.48-6.3L278.48-6.3Q278.48-9.4 278.48-12.48 278.48-15.55 278.48-18.63 278.48-21.7 278.48-24.78 278.48-27.85 278.48-31L278.48-31 295.78-31Q295.78-28.35 295.78-25.8 295.78-23.25 295.78-20.7 295.78-18.15 295.78-15.45L295.78-15.45Q295.78-14.5 296.28-13.8 296.78-13.1 297.63-12.65 298.48-12.2 299.56-11.98 300.63-11.75 301.73-11.75L301.73-11.75Q303.68-11.75 304.96-12.3 306.23-12.85 306.86-13.7 307.48-14.55 307.48-15.45L307.48-15.45Q307.48-16.25 307.13-16.93 306.78-17.6 306.08-18.13 305.38-18.65 304.28-18.95 303.18-19.25 301.73-19.25L301.73-19.25Q299.63-19.25 298.01-18.5 296.38-17.75 295.83-16.05L295.83-16.05 299.83-31Q301.48-31.4 303.08-31.58 304.68-31.75 306.23-31.75L306.23-31.75Q309.28-31.75 312.11-31.05 314.93-30.35 317.26-29 319.58-27.65 321.33-25.68 323.08-23.7 324.03-21.18 324.98-18.65 324.98-15.55ZM343.78 0L326.48 0Q326.48-2.3 326.48-4.58 326.48-6.85 326.48-9.13 326.48-11.4 326.48-13.65L326.48-13.65Q326.48-14.6 326.48-15.55 326.48-16.5 326.48-17.45L326.48-17.45Q329.38-17.45 332.25-17.45 335.13-17.45 338.03-17.45 340.93-17.45 343.78-17.45L343.78-17.45Q343.78-14.55 343.78-11.65 343.78-8.75 343.78-5.83 343.78-2.9 343.78 0L343.78 0ZM326.48-17.45L326.48-17.45Q326.48-20.85 326.48-24.25 326.48-27.65 326.48-31L326.48-31 343.78-31Q343.78-29.35 343.78-27.7 343.78-26.05 343.78-24.4 343.78-22.75 343.78-21.1L343.78-21.1Q343.78-21.1 343.75-21.08 343.73-21.05 343.73-21.05L343.73-21.05Q339.43-20.15 335.11-19.25 330.78-18.35 326.48-17.45Z" opacity="1" transform="matrix(1,0,0,1,0,0)" fill="#000000" class="wordmark-text-0" data-fill-palette-color="primary" id="text-0"></path></svg></g></svg></g></svg></g></svg></g><g></g></svg></g><defs></defs></svg><rect width="395.52" height="50.18996499416569" fill="none" stroke="none" visibility="hidden"></rect></g></svg></g></svg>