<?xml version="1.0" encoding="UTF-8"?>
<!DOCTYPE svg PUBLIC "-//W3C//DTD SVG 1.1//EN" "http://www.w3.org/Graphics/SVG/1.1/DTD/svg11.dtd">
<svg xmlns="http://www.w3.org/2000/svg" version="1.1" width="997px" height="997px" style="shape-rendering:geometricPrecision; text-rendering:geometricPrecision; image-rendering:optimizeQuality; fill-rule:evenodd; clip-rule:evenodd" xmlns:xlink="http://www.w3.org/1999/xlink">
<g><path style="opacity:0.998" fill="#fefefe" d="M 466.5,-0.5 C 487.5,-0.5 508.5,-0.5 529.5,-0.5C 666.979,10.9912 781.812,67.6578 874,169.5C 946.75,255.042 987.583,354.042 996.5,466.5C 996.5,487.5 996.5,508.5 996.5,529.5C 985.009,666.979 928.342,781.812 826.5,874C 740.958,946.75 641.958,987.583 529.5,996.5C 508.5,996.5 487.5,996.5 466.5,996.5C 329.021,985.009 214.188,928.342 122,826.5C 49.25,740.958 8.41666,641.958 -0.5,529.5C -0.5,508.5 -0.5,487.5 -0.5,466.5C 10.9912,329.021 67.6578,214.188 169.5,122C 255.042,49.25 354.042,8.41666 466.5,-0.5 Z"/></g>
<g><path style="opacity:1" fill="#292c34" d="M 803.5,291.5 C 792.167,291.5 780.833,291.5 769.5,291.5C 769.831,268.327 769.498,245.327 768.5,222.5C 583.833,222.5 399.167,222.5 214.5,222.5C 214.5,407.5 214.5,592.5 214.5,777.5C 399.167,777.5 583.833,777.5 768.5,777.5C 769.498,754.673 769.831,731.673 769.5,708.5C 780.833,708.5 792.167,708.5 803.5,708.5C 803.5,742.833 803.5,777.167 803.5,811.5C 595.833,811.5 388.167,811.5 180.5,811.5C 180.5,603.833 180.5,396.167 180.5,188.5C 388.167,188.5 595.833,188.5 803.5,188.5C 803.5,222.833 803.5,257.167 803.5,291.5 Z"/></g>
<g><path style="opacity:1" fill="#adaeb1" d="M 768.5,222.5 C 768.5,222.833 768.5,223.167 768.5,223.5C 584.167,223.5 399.833,223.5 215.5,223.5C 215.5,407.833 215.5,592.167 215.5,776.5C 399.833,776.5 584.167,776.5 768.5,776.5C 768.5,776.833 768.5,777.167 768.5,777.5C 583.833,777.5 399.167,777.5 214.5,777.5C 214.5,592.5 214.5,407.5 214.5,222.5C 399.167,222.5 583.833,222.5 768.5,222.5 Z"/></g>
<g><path style="opacity:1" fill="#62636a" d="M 768.5,222.5 C 769.498,245.327 769.831,268.327 769.5,291.5C 780.833,291.5 792.167,291.5 803.5,291.5C 792.012,292.495 780.345,292.828 768.5,292.5C 768.5,269.5 768.5,246.5 768.5,223.5C 768.5,223.167 768.5,222.833 768.5,222.5 Z"/></g>
<g><path style="opacity:1" fill="#2a2c35" d="M 343.5,307.5 C 369.167,307.5 394.833,307.5 420.5,307.5C 420.5,410.167 420.5,512.833 420.5,615.5C 484.833,615.5 549.167,615.5 613.5,615.5C 613.5,641.167 613.5,666.833 613.5,692.5C 523.5,692.5 433.5,692.5 343.5,692.5C 343.5,564.167 343.5,435.833 343.5,307.5 Z"/></g>
<g><path style="opacity:1" fill="#2a2c35" d="M 653.5,307.5 C 679.167,307.5 704.833,307.5 730.5,307.5C 730.5,410.167 730.5,512.833 730.5,615.5C 794.833,615.5 859.167,615.5 923.5,615.5C 923.5,641.167 923.5,666.833 923.5,692.5C 833.5,692.5 743.5,692.5 653.5,692.5C 653.5,564.167 653.5,435.833 653.5,307.5 Z"/></g>
<g><path style="opacity:1" fill="#62636a" d="M 803.5,708.5 C 792.167,708.5 780.833,708.5 769.5,708.5C 769.831,731.673 769.498,754.673 768.5,777.5C 768.5,777.167 768.5,776.833 768.5,776.5C 768.5,753.5 768.5,730.5 768.5,707.5C 780.345,707.172 792.012,707.505 803.5,708.5 Z"/></g>
</svg>
